<?xml version="1.0" standalone="no"?>
<!DOCTYPE svg PUBLIC "-//W3C//DTD SVG 20010904//EN"
 "http://www.w3.org/TR/2001/REC-SVG-20010904/DTD/svg10.dtd">
<svg version="1.0" xmlns="http://www.w3.org/2000/svg"
 width="16.000000pt" height="16.000000pt" viewBox="0 0 16.000000 16.000000"
 preserveAspectRatio="xMidYMid meet">
<metadata>
Created by potrace 1.11, written by Peter Selinger 2001-2013
</metadata>
<g transform="translate(0.000000,16.000000) scale(0.002286,-0.002286)"
fill="#000000" stroke="none">
<path d="M737 6990 c-185 -32 -345 -115 -477 -250 -94 -96 -94 -97 -147 -189
-38 -66 -72 -155 -100 -258 -4 -16 -9 -863 -10 -1883 -2 -1977 -3 -1934 45
-2070 104 -296 378 -530 674 -575 23 -4 50 -9 58 -10 8 -2 328 -4 710 -4 l695
-1 870 -870 c479 -478 873 -870 876 -870 4 0 6 389 6 865 0 476 2 868 5 870 2
3 515 5 1139 5 1081 1 1138 2 1221 20 270 59 486 228 611 475 29 59 66 172 75
235 9 58 9 3732 0 3785 -13 83 -22 112 -57 195 -100 234 -288 410 -524 491
-45 15 -95 31 -112 36 -40 10 -5497 13 -5558 3z m5439 -433 c198 -25 352 -177
380 -375 8 -58 9 -3587 0 -3622 -27 -121 -50 -164 -124 -240 -59 -60 -159
-116 -225 -125 -17 -2 -634 -5 -1369 -5 l-1338 -1 0 -567 0 -567 -567 567
-567 567 -770 1 c-424 0 -782 2 -796 4 -84 14 -183 70 -246 139 -53 60 -76
100 -100 182 -16 56 -17 178 -17 1845 0 982 3 1801 7 1820 12 69 15 82 39 133
60 130 195 226 341 243 28 4 52 7 53 8 6 5 5258 -2 5299 -7z"/>
<path d="M1311 5469 l0 -219 2189 0 2189 0 -1 219 0 220 -2188 -1 -2188 0 -1
-219z"/>
<path d="M1358 4810 l-46 -5 1 -215 2 -215 2175 -1 c1196 0 2180 2 2187 4 8 2
11 64 12 218 l0 214 -22 1 c-151 3 -4275 3 -4309 -1z"/>
<path d="M1315 3931 c-2 -4 -4 -102 -4 -219 l0 -212 1313 0 1313 0 -1 218 -1
217 -1308 1 c-719 1 -1309 -2 -1312 -5z"/>
</g>
</svg>
